<svg xmlns="http://www.w3.org/2000/svg" xmlns:xlink="http://www.w3.org/1999/xlink" width="951px" height="722px" viewBox="0 0 951 722" version="1.1">
    <title>Group 19</title>
    <g id="Page-1" stroke="none" stroke-width="1" fill="none" fill-rule="evenodd">
        <g id="Group-19" transform="translate(1.865529, 0.065781)">
            <path d="M641.517502,183.934219 C632.809714,171.076287 634.512887,161.351471 646.627019,154.759772 C658.741151,148.168073 674.576969,148.349346 694.134471,155.30359 C684.444493,113.964221 686.987379,92.1381125 701.76313,89.8252647 C716.53888,87.5124169 740.115069,105.250107 772.491695,143.038336 L748.042637,219.694279 L641.517502,183.934219 Z" id="Path-20" fill="#56C400"/>
            <path d="M948.84648,341.92788 C789.03054,275.060138 672.151882,234.813128 598.210507,221.186848 C524.269132,207.560568 350.814456,204.500761 77.8464798,212.007426 C198.166919,201.623798 265.099136,194.821232 278.64313,191.599727 C292.187125,188.378223 260.256216,161.269272 182.850404,110.272875 C178.291927,104.488 180.74864,104.488 190.220542,110.272875 C236.631675,138.618037 306.171216,183.854231 318.848011,186.76747 C343.684327,192.475075 542.574113,170.289101 619.513663,179.371953 C670.806697,185.427188 780.584302,213.945123 948.84648,264.925758 L948.84648,341.92788 Z" id="Path-6" fill="#DD822F"/>
            <g id="Group-16" transform="translate(166.279443, 88.296059) rotate(-31.000000) translate(-166.279443, -88.296059) translate(122.141898, 60.020078)">
                <path d="M47.9516305,52.4211536 C48.6294849,36.881955 45.1065954,24.8218115 37.3829621,16.2407231 C29.6593288,7.65963465 18.2122882,3.08793042 3.04184044,2.52561038 C-2.09930178,21.1745958 -0.723498789,34.8835774 7.16924941,43.6525554 C15.0619976,52.4215333 28.6561247,55.3443994 47.9516305,52.4211536 Z" id="Path-18" stroke="#297401" fill="#297401"/>
                <path d="M81.009309,49.30359 C81.6130565,35.9119021 78.4753091,25.5184654 71.5960667,18.1232798 C64.7168243,10.7280942 54.5212384,6.78819762 41.009309,6.30358997 C36.4302253,22.3752934 37.6556178,34.1896995 44.6854865,41.7468084 C51.7153552,49.3039172 63.823296,51.8228444 81.009309,49.30359 Z" id="Path-18" stroke="#56C400" fill="#56C400" transform="translate(59.691198, 28.275981) rotate(67.000000) translate(-59.691198, -28.275981) "/>
            </g>
            <g id="Group-17" transform="translate(69.703798, 218.329134) rotate(34.000000) translate(-69.703798, -218.329134) translate(17.307331, 171.359371)">
                <g id="Group-16" transform="translate(52.396467, 46.969762) scale(1, -1) rotate(-31.000000) translate(-52.396467, -46.969762) translate(8.258922, 18.693782)">
                    <path d="M47.9516305,52.4211536 C48.6294849,36.881955 45.1065954,24.8218115 37.3829621,16.2407231 C29.6593288,7.65963465 18.2122882,3.08793042 3.04184044,2.52561038 C-2.09930178,21.1745958 -0.723498789,34.8835774 7.16924941,43.6525554 C15.0619976,52.4215333 28.6561247,55.3443994 47.9516305,52.4211536 Z" id="Path-18" stroke="#297401" fill="#297401"/>
                    <path d="M81.009309,49.30359 C81.6130565,35.9119021 78.4753091,25.5184654 71.5960667,18.1232798 C64.7168243,10.7280942 54.5212384,6.78819762 41.009309,6.30358997 C36.4302253,22.3752934 37.6556178,34.1896995 44.6854865,41.7468084 C51.7153552,49.3039172 63.823296,51.8228444 81.009309,49.30359 Z" id="Path-18" stroke="#56C400" fill="#56C400" transform="translate(59.691198, 28.275981) rotate(67.000000) translate(-59.691198, -28.275981) "/>
                </g>
            </g>
            <polygon id="Path-7" fill="#F8B200" points="461.809855 599.589845 487.222825 595.604698 529.142104 571.534973 539.796099 549.115043 567.572289 535.529317 573.410668 521.893429 573.410668 508.996047 602.307157 482.986698 602.307157 467.282993 597.212859 455.294113 617.503662 437.059979 622.338787 418.753388 612.980661 402.194131 605.97182 395.37758 622.338787 375.34595 622.338787 356.796906 612.980661 340.864682 602.307157 336.50889 602.307157 319.765702 597.212859 303.722006 581.082771 290.50414 567.572289 279.813785 573.410668 272.228204 573.410668 262.635985 561.814728 252.536566 548.217856 247.004737 539.796099 247.004737 533.079874 228.845847 522.565219 214.705545 500.248401 204.137941 475.38722 193.589845 461.809855 193.589845 440.68022 193.589845 424.605868 204.137941 403.367547 214.705545 382.215618 228.845847 378.255553 239.215588 369.217911 247.004737 343.370197 267.496191 343.370197 284.094464 337.715748 290.50414 321.897784 303.722006 315.095167 319.765702 315.095167 336.50889 305.826219 340.864682 293.567018 356.796906 293.567018 366.188475 305.826219 384.550802 315.095167 395.37758 301.894022 408.104966 293.567018 418.753388 293.567018 437.059979 305.826219 448.05954 321.897784 455.294113 315.095167 467.282993 315.095167 488.825077 337.715748 502.176709 343.370197 508.996047 343.370197 521.893429 353.355357 539.369549 369.217911 549.115043 378.255553 557.815481 398.395869 581.291614 417.103761 595.604698 440.68022 599.589845"/>
            <path d="M519.557219,246.309849 C500.714572,247.188973 479.718625,247.628535 456.569377,247.628535 C433.42013,247.628535 411.230668,246.327917 390.000993,243.726681 C385.10183,240.55912 380.893935,236.074477 377.377306,230.272751 C373.860677,224.471025 372.497057,218.58962 373.286446,212.628535 C410.057124,214.832823 437.699356,215.934968 456.213144,215.934968 C474.726932,215.934968 502.416414,214.832823 539.281589,212.628535 C540.933401,219.896188 539.987609,225.777593 536.444213,230.272751 C532.900817,234.767909 527.271819,240.113608 519.557219,246.309849 Z" id="Path-12" stroke="#F8C500" fill="#F8C500" transform="translate(456.569377, 230.128535) scale(1, -1) translate(-456.569377, -230.128535) "/>
            <g id="Group-14" transform="translate(348.134471, 193.934219)" fill="#56C400">
                <path d="M57.2375579,0 L35.2957193,13.6610457 L23.421586,16.9394638 L7.69184561,16.9394638 L0,16.9394638 L23.421586,38.3918476 L41.5633404,48 L61.7245754,43.5918962 L75.2811789,33.5120708 L88.3458246,16.9394638 L92,8.59492903 C83.809772,7.70904376 77.665248,6.75938951 73.5664281,5.74596627 C69.4676081,4.73254304 64.0246514,2.81722095 57.2375579,0 Z" id="Path-8"/>
                <polygon id="Path-10" points="127 8.25251283 133.257598 3 144.923538 3 164.30128 8.25251283 191.871679 16.8409615 208.229848 16.8409615 219 12.4987858 208.229848 29.6432238 197.034423 42.5310608 184.166341 51 173 51 167.589718 42.5310608 161.090399 33.9367104 153.007615 29.6432238 142.40809 23.3623398 130.48621 20.7921495 127 20.7921495"/>
            </g>
            <path d="M539.796099,549.115043 C505.986498,552.790704 478.983095,554.628535 458.785891,554.628535 C438.588687,554.628535 408.732694,552.790704 369.217911,549.115043 C360.63902,545.269431 353.912856,539.564523 349.039419,532.000318 C344.165981,524.436112 342.276241,516.768022 343.370197,508.996047 C394.101769,511.481111 432.296004,512.723642 457.952902,512.723642 C483.609801,512.723642 522.095722,511.481111 573.410668,508.996047 C575.699792,518.471507 574.389088,526.139597 569.478556,532.000318 C564.568024,537.861039 554.673872,543.565947 539.796099,549.115043 Z" id="Path-12" stroke="#F8C500" fill="#F8C500"/>
            <path d="M567.572289,333.443285 C534.964355,334.900118 498.630051,335.628535 458.569377,335.628535 C418.508703,335.628535 380.108976,333.473225 343.370197,329.162606 C334.892005,323.913505 327.610078,316.48181 321.524415,306.867522 C315.438752,297.253233 313.078955,287.506904 314.445023,277.628535 C377.155762,277.628535 424.530547,277.628535 456.569377,277.628535 C488.608208,277.628535 536.987109,277.628535 601.70608,277.628535 C604.564604,289.672074 602.927873,299.418403 596.795889,306.867522 C590.663905,314.31664 580.922705,323.175228 567.572289,333.443285 Z" id="Path-12" stroke="#F8C500" fill="#F8C500" transform="translate(458.569377, 306.628535) scale(1, -1) translate(-458.569377, -306.628535) "/>
            <path d="M458.785891,512.088627 C497.358062,512.088627 535.930234,511.057767 574.502405,508.996047 C591.913304,499.945562 602.72629,491.034019 606.941364,482.261419 C611.156437,473.488819 608.890821,464.611191 600.144515,455.628535 L436.134471,455.628535 L321.151885,455.628535 C310.285549,464.34249 306.708966,473.220118 310.422136,482.261419 C314.135306,491.30272 325.01772,500.214262 343.069377,508.996047 C381.641549,511.057767 420.21372,512.088627 458.785891,512.088627 Z" id="Path-15" fill="#F8B200"/>
            <path d="M595.723093,455.628535 C527.992326,455.628535 479.599926,455.628535 450.545894,455.628535 C421.491862,455.628535 378.360526,455.628535 321.151885,455.628535 C305.555816,449.733317 295.385456,442.190578 290.640806,433.000318 C285.896155,423.810058 293.004888,410.121358 311.967003,391.934219 C367.445033,391.934219 413.637997,391.934219 450.545894,391.934219 C487.453792,391.934219 540.632924,391.934219 610.08329,391.934219 C622.954802,408.223617 627.034428,421.912316 622.32217,433.000318 C617.609912,444.088319 608.743553,451.631058 595.723093,455.628535 Z" id="Path-12" stroke="#F8C500" fill="#F8C500"/>
            <g id="Group-15" transform="translate(408.134471, 467.434219) scale(-1, 1) translate(-408.134471, -467.434219) translate(380.134471, 438.934219)">
                <ellipse id="Oval" fill="#9F5200" cx="28" cy="28.5" rx="28" ry="28.5"/>
                <ellipse id="Oval" fill="#692C00" cx="23.5" cy="28.5" rx="23.5" ry="28.5"/>
            </g>
            <path d="M369.217911,549.115043 C381.386615,582.764911 408.991767,599.589845 452.033367,599.589845 C495.074966,599.589845 526.023488,582.764911 544.878932,549.115043 C515.602095,552.790704 486.325258,554.628535 457.048421,554.628535 C427.771585,554.628535 398.494748,552.790704 369.217911,549.115043 Z" id="Path-14" stroke="#F8B200" fill="#F8B200"/>
            <polygon id="Path-11" fill="#FFE500" points="404.57007 527.958339 404.57007 542.341721 406.318107 551.450873 410.810292 554.628535 416.144761 551.450873 416.144761 544.743792 416.144761 516.539626 417.945508 500.416813 429.32657 487.934219 390.208202 487.934219 386.134471 491.244193 386.134471 496.588344 386.134471 521.281377 386.134471 535.884205 386.134471 542.341721 390.208202 544.743792 395.593231 542.341721 398.031876 535.884205 398.031876 523.243481 402.724144 523.243481"/>
            <path d="M312.208529,391.934219 C299.780855,381.873623 293.567018,372.262249 293.567018,363.100095 C293.567018,353.937942 299.780855,344.780755 312.208529,335.628535 L607.132028,335.628535 C621.736198,344.328847 628.87774,353.486033 628.556656,363.100095 C628.235573,372.714157 623.46269,382.325532 614.238009,391.934219 L312.208529,391.934219 Z" id="Path-16" fill="#F8B200"/>
            <path d="M581.082771,290.559689 C578.871942,278.864625 576.314574,270.160574 573.410668,264.447535 C570.506761,258.734497 563.652032,254.047225 552.84648,250.38572 L369.217911,250.38572 C359.399649,250.38572 350.683472,255.072992 343.069377,264.447535 C335.455283,273.822079 332.372809,282.801474 333.821957,291.38572 C384.133329,288.472358 423.615067,286.967817 452.267172,286.872098 C480.919277,286.776379 523.85781,288.005576 581.082771,290.559689 Z" id="Path-17" fill="#F8B200"/>
            <ellipse id="Oval" fill="#F2F2F2" cx="435.634471" cy="704.434219" rx="246.5" ry="17.5"/>
            <polygon id="Path-9" fill="#297401" points="431.582123 196.766614 427.572837 205.394613 424.322759 216.819698 422.445935 230.696981 419.487465 247.346506 414.134471 257.934219 427.572837 257.934219 444.804673 252.474496 463.344248 242.532714 476.469168 227.350416 484.134471 209.824062 484.134471 196.766614 471.393651 186.639237 458.967562 183.934219 441.142233 186.639237"/>
            <path d="M694.134471,195.712267 L900.979156,252.670598 L947.580565,265.672962 C948.616502,145.645948 948.616502,83.1513477 947.580565,78.1891602 C946.544628,73.2269727 922.254031,77.3432095 874.708772,90.5378704 C866.989218,62.1530751 858.991742,47.0204092 850.716343,45.1398729 C842.440944,43.2593365 832.324705,54.2757656 820.367625,78.1891602 C788.139667,60.849197 766.023423,56.1599973 754.018892,64.1215611 C742.014362,72.083125 740.716193,92.3010741 750.124387,124.775408 C726.815108,120.455661 712.146119,123.36659 706.117419,133.508198 C700.08872,143.649805 703.860041,159.071164 717.431385,179.772273 L694.134471,195.712267 Z" id="Path-19" fill="#3E9A00"/>
            <g id="Group-18" transform="translate(682.134471, 429.934219)">
                <path d="M26.3864312,45 C39.7161056,43.8426102 48.8640147,39.9132485 53.8301584,33.2119151 C61.279374,23.1599149 65.0851369,5.70388956 58.9181023,1.10163762 C52.7510677,-3.50061433 38.2765334,7.22522891 31.4149893,16.484223 C26.8406265,22.6568857 25.1644405,32.1621447 26.3864312,45 Z" id="Path-22" fill="#F5F5F5"/>
                <path d="M24.005254,66 C34.7907277,66 67,62.6696225 67,59.81371 C67,56.9577975 40.5508487,32.0930639 24.005254,31.0884139 C7.45965932,30.083764 2,37.7734075 2,47.4139758 C2,57.054544 13.2197803,66 24.005254,66 Z" id="Oval" fill="#FFDB00"/>
                <polygon id="Path-25" fill="#3F3F3F" points="29.3323619 66 39.7086945 64.9734445 49 42.1955754 34.2058535 34 27 66"/>
                <path d="M34.3864312,45 C47.7161056,43.8426102 56.8640147,39.9132485 61.8301584,33.2119151 C69.279374,23.1599149 73.0851369,5.70388956 66.9181023,1.10163762 C60.7510677,-3.50061433 46.2765334,7.22522891 39.4149893,16.484223 C34.8406265,22.6568857 33.1644405,32.1621447 34.3864312,45 Z" id="Path-22" fill="#ECECEC"/>
                <path d="M3.47890531,25 C5.40025165,25 9,24.0816669 9,23.5294196 C9,22.9771722 5.40025165,23.0001354 3.47890531,23.0001354 C1.55755896,23.0001354 0,23.4478203 0,24.0000677 C0,24.5523151 1.55755896,25 3.47890531,25 Z" id="Oval" fill="#FFDB00"/>
                <path d="M17.8247964,34 C18.4914904,30.1694711 17.2554802,27.2520537 14.1167659,25.2477477 C10.9780516,23.2434417 6.60579628,22.5795583 1,23.2560976" id="Path-23" stroke="#000000"/>
                <path d="M10,43 C10.9335999,41.6666667 11.9034176,41 12.9094532,41 C13.9154888,41 14.945671,41.6666667 16,43" id="Path-24" stroke="#000000" stroke-width="3"/>
                <path d="M57.609347,50 L54,63 C62.6666667,62.1644853 67,61.0450874 67,59.6418062 C67,58.2385251 63.8697823,55.0245897 57.609347,50 Z" id="Path-26" fill="#3F3F3F"/>
            </g>
            <g id="Group-18" transform="translate(333.134471, 515.934219) scale(-1, 1) translate(-333.134471, -515.934219) translate(298.134471, 482.934219)">
                <path d="M26.3864312,45 C39.7161056,43.8426102 48.8640147,39.9132485 53.8301584,33.2119151 C61.279374,23.1599149 65.0851369,5.70388956 58.9181023,1.10163762 C52.7510677,-3.50061433 38.2765334,7.22522891 31.4149893,16.484223 C26.8406265,22.6568857 25.1644405,32.1621447 26.3864312,45 Z" id="Path-22" fill="#F5F5F5"/>
                <path d="M24.005254,66 C34.7907277,66 67,62.6696225 67,59.81371 C67,56.9577975 40.5508487,32.0930639 24.005254,31.0884139 C7.45965932,30.083764 2,37.7734075 2,47.4139758 C2,57.054544 13.2197803,66 24.005254,66 Z" id="Oval" fill="#FFDB00"/>
                <polygon id="Path-25" fill="#3F3F3F" points="29.3323619 66 39.7086945 64.9734445 49 42.1955754 34.2058535 34 27 66"/>
                <path d="M34.3864312,45 C47.7161056,43.8426102 56.8640147,39.9132485 61.8301584,33.2119151 C69.279374,23.1599149 73.0851369,5.70388956 66.9181023,1.10163762 C60.7510677,-3.50061433 46.2765334,7.22522891 39.4149893,16.484223 C34.8406265,22.6568857 33.1644405,32.1621447 34.3864312,45 Z" id="Path-22" fill="#ECECEC"/>
                <path d="M3.47890531,25 C5.40025165,25 9,24.0816669 9,23.5294196 C9,22.9771722 5.40025165,23.0001354 3.47890531,23.0001354 C1.55755896,23.0001354 0,23.4478203 0,24.0000677 C0,24.5523151 1.55755896,25 3.47890531,25 Z" id="Oval" fill="#FFDB00"/>
                <path d="M17.8247964,34 C18.4914904,30.1694711 17.2554802,27.2520537 14.1167659,25.2477477 C10.9780516,23.2434417 6.60579628,22.5795583 1,23.2560976" id="Path-23" stroke="#000000"/>
                <path d="M10,43 C10.9335999,41.6666667 11.9034176,41 12.9094532,41 C13.9154888,41 14.945671,41.6666667 16,43" id="Path-24" stroke="#000000" stroke-width="3"/>
                <path d="M57.609347,50 L54,63 C62.6666667,62.1644853 67,61.0450874 67,59.6418062 C67,58.2385251 63.8697823,55.0245897 57.609347,50 Z" id="Path-26" fill="#3F3F3F"/>
            </g>
            <g id="Group-18" transform="translate(139.134471, 374.934219) scale(-1, 1) translate(-139.134471, -374.934219) translate(104.134471, 341.934219)">
                <path d="M26.3864312,45 C39.7161056,43.8426102 48.8640147,39.9132485 53.8301584,33.2119151 C61.279374,23.1599149 65.0851369,5.70388956 58.9181023,1.10163762 C52.7510677,-3.50061433 38.2765334,7.22522891 31.4149893,16.484223 C26.8406265,22.6568857 25.1644405,32.1621447 26.3864312,45 Z" id="Path-22" fill="#F5F5F5"/>
                <path d="M24.005254,66 C34.7907277,66 67,62.6696225 67,59.81371 C67,56.9577975 40.5508487,32.0930639 24.005254,31.0884139 C7.45965932,30.083764 2,37.7734075 2,47.4139758 C2,57.054544 13.2197803,66 24.005254,66 Z" id="Oval" fill="#FFDB00"/>
                <polygon id="Path-25" fill="#3F3F3F" points="29.3323619 66 39.7086945 64.9734445 49 42.1955754 34.2058535 34 27 66"/>
                <path d="M34.3864312,45 C47.7161056,43.8426102 56.8640147,39.9132485 61.8301584,33.2119151 C69.279374,23.1599149 73.0851369,5.70388956 66.9181023,1.10163762 C60.7510677,-3.50061433 46.2765334,7.22522891 39.4149893,16.484223 C34.8406265,22.6568857 33.1644405,32.1621447 34.3864312,45 Z" id="Path-22" fill="#ECECEC"/>
                <path d="M3.47890531,25 C5.40025165,25 9,24.0816669 9,23.5294196 C9,22.9771722 5.40025165,23.0001354 3.47890531,23.0001354 C1.55755896,23.0001354 0,23.4478203 0,24.0000677 C0,24.5523151 1.55755896,25 3.47890531,25 Z" id="Oval" fill="#FFDB00"/>
                <path d="M17.8247964,34 C18.4914904,30.1694711 17.2554802,27.2520537 14.1167659,25.2477477 C10.9780516,23.2434417 6.60579628,22.5795583 1,23.2560976" id="Path-23" stroke="#000000"/>
                <path d="M10,43 C10.9335999,41.6666667 11.9034176,41 12.9094532,41 C13.9154888,41 14.945671,41.6666667 16,43" id="Path-24" stroke="#000000" stroke-width="3"/>
                <path d="M57.609347,50 L54,63 C62.6666667,62.1644853 67,61.0450874 67,59.6418062 C67,58.2385251 63.8697823,55.0245897 57.609347,50 Z" id="Path-26" fill="#3F3F3F"/>
            </g>
            <g id="Group-18" transform="translate(505.134471, 40.934219) rotate(-15.000000) translate(-505.134471, -40.934219) translate(470.134471, 7.934219)">
                <path d="M26.3864312,45 C39.7161056,43.8426102 48.8640147,39.9132485 53.8301584,33.2119151 C61.279374,23.1599149 65.0851369,5.70388956 58.9181023,1.10163762 C52.7510677,-3.50061433 38.2765334,7.22522891 31.4149893,16.484223 C26.8406265,22.6568857 25.1644405,32.1621447 26.3864312,45 Z" id="Path-22" fill="#F5F5F5"/>
                <path d="M24.005254,66 C34.7907277,66 67,62.6696225 67,59.81371 C67,56.9577975 40.5508487,32.0930639 24.005254,31.0884139 C7.45965932,30.083764 2,37.7734075 2,47.4139758 C2,57.054544 13.2197803,66 24.005254,66 Z" id="Oval" fill="#FFDB00"/>
                <polygon id="Path-25" fill="#3F3F3F" points="29.3323619 66 39.7086945 64.9734445 49 42.1955754 34.2058535 34 27 66"/>
                <path d="M34.3864312,45 C47.7161056,43.8426102 56.8640147,39.9132485 61.8301584,33.2119151 C69.279374,23.1599149 73.0851369,5.70388956 66.9181023,1.10163762 C60.7510677,-3.50061433 46.2765334,7.22522891 39.4149893,16.484223 C34.8406265,22.6568857 33.1644405,32.1621447 34.3864312,45 Z" id="Path-22" fill="#ECECEC"/>
                <path d="M3.47890531,25 C5.40025165,25 9,24.0816669 9,23.5294196 C9,22.9771722 5.40025165,23.0001354 3.47890531,23.0001354 C1.55755896,23.0001354 0,23.4478203 0,24.0000677 C0,24.5523151 1.55755896,25 3.47890531,25 Z" id="Oval" fill="#FFDB00"/>
                <path d="M17.8247964,34 C18.4914904,30.1694711 17.2554802,27.2520537 14.1167659,25.2477477 C10.9780516,23.2434417 6.60579628,22.5795583 1,23.2560976" id="Path-23" stroke="#000000"/>
                <path d="M10,43 C10.9335999,41.6666667 11.9034176,41 12.9094532,41 C13.9154888,41 14.945671,41.6666667 16,43" id="Path-24" stroke="#000000" stroke-width="3"/>
                <path d="M57.609347,50 L54,63 C62.6666667,62.1644853 67,61.0450874 67,59.6418062 C67,58.2385251 63.8697823,55.0245897 57.609347,50 Z" id="Path-26" fill="#3F3F3F"/>
            </g>
            <path d="M853.95755,240.022244 C872.105601,216.840985 880.342723,203.071339 878.668917,198.713305 C876.99511,194.355272 864.721454,197.61513 841.847948,208.49288 C833.497291,189.366346 826.629973,181.76479 821.245994,185.688213 C815.862016,189.611635 813.73217,203.769619 814.856459,228.162164 L853.95755,240.022244 Z" id="Path-21" fill="#56C400"/>
        </g>
    </g>
</svg>